<svg width="25" height="18" viewBox="0 0 25 18" fill="none" xmlns="http://www.w3.org/2000/svg">
<path d="M3.62936 7.5C4.9639 7.5 6.04893 6.37891 6.04893 5C6.04893 3.62109 4.9639 2.5 3.62936 2.5C2.29481 2.5 1.20979 3.62109 1.20979 5C1.20979 6.37891 2.29481 7.5 3.62936 7.5ZM20.5664 7.5C21.9009 7.5 22.9859 6.37891 22.9859 5C22.9859 3.62109 21.9009 2.5 20.5664 2.5C19.2318 2.5 18.1468 3.62109 18.1468 5C18.1468 6.37891 19.2318 7.5 20.5664 7.5ZM21.7761 8.75H19.3566C18.6912 8.75 18.0901 9.02734 17.6515 9.47656C19.1751 10.3398 20.2563 11.8984 20.4907 13.75H22.9859C23.6551 13.75 24.1957 13.1914 24.1957 12.5V11.25C24.1957 9.87109 23.1107 8.75 21.7761 8.75ZM12.0979 8.75C14.438 8.75 16.3321 6.79297 16.3321 4.375C16.3321 1.95703 14.438 0 12.0979 0C9.75768 0 7.86361 1.95703 7.86361 4.375C7.86361 6.79297 9.75768 8.75 12.0979 8.75ZM15.0013 10H14.6876C13.9012 10.3906 13.0279 10.625 12.0979 10.625C11.1678 10.625 10.2983 10.3906 9.50816 10H9.19437C6.78992 10 4.83914 12.0156 4.83914 14.5V15.625C4.83914 16.6602 5.65197 17.5 6.65382 17.5H17.5419C18.5437 17.5 19.3566 16.6602 19.3566 15.625V14.5C19.3566 12.0156 17.4058 10 15.0013 10ZM6.54418 9.47656C6.10564 9.02734 5.50452 8.75 4.83914 8.75H2.41957C1.08503 8.75 0 9.87109 0 11.25V12.5C0 13.1914 0.540623 13.75 1.20979 13.75H3.70119C3.93936 11.8984 5.02061 10.3398 6.54418 9.47656Z" fill="black"/>
</svg>
