<svg width="25" height="25" viewBox="0 0 25 25" fill="none" xmlns="http://www.w3.org/2000/svg">
<g clip-path="url(#clip0_2070_44)">
<path d="M12.1688 7.82374L4.16667 14.4145V21.5277C4.16667 21.7119 4.23983 21.8886 4.37007 22.0188C4.5003 22.149 4.67693 22.2222 4.86111 22.2222L9.72483 22.2096C9.9084 22.2087 10.0841 22.1351 10.2136 22.005C10.3431 21.8748 10.4158 21.6987 10.4158 21.5151V17.3611C10.4158 17.1769 10.489 17.0003 10.6192 16.87C10.7494 16.7398 10.9261 16.6666 11.1102 16.6666H13.888C14.0722 16.6666 14.2488 16.7398 14.3791 16.87C14.5093 17.0003 14.5825 17.1769 14.5825 17.3611V21.5121C14.5822 21.6035 14.5999 21.694 14.6347 21.7785C14.6695 21.863 14.7206 21.9398 14.7851 22.0046C14.8496 22.0693 14.9263 22.1206 15.0107 22.1557C15.0951 22.1907 15.1855 22.2087 15.2769 22.2087L20.1389 22.2222C20.3231 22.2222 20.4997 22.149 20.6299 22.0188C20.7602 21.8886 20.8333 21.7119 20.8333 21.5277V14.4097L12.8329 7.82374C12.7388 7.74793 12.6217 7.70659 12.5009 7.70659C12.3801 7.70659 12.2629 7.74793 12.1688 7.82374ZM24.809 12.3033L21.1806 9.31246V3.30074C21.1806 3.16261 21.1257 3.03013 21.028 2.93246C20.9303 2.83478 20.7979 2.77991 20.6597 2.77991H18.2292C18.091 2.77991 17.9586 2.83478 17.8609 2.93246C17.7632 3.03013 17.7083 3.16261 17.7083 3.30074V6.45222L13.8225 3.25517C13.4496 2.9483 12.9816 2.78052 12.4987 2.78052C12.0158 2.78052 11.5478 2.9483 11.1749 3.25517L0.188369 12.3033C0.135629 12.3469 0.091995 12.4005 0.0599603 12.461C0.0279255 12.5214 0.00811776 12.5876 0.00166871 12.6557C-0.00478033 12.7238 0.00225574 12.7925 0.0223749 12.8579C0.0424941 12.9233 0.075302 12.9841 0.118924 13.0369L1.22569 14.3823C1.2692 14.4352 1.32271 14.479 1.38316 14.5112C1.44361 14.5434 1.50982 14.5634 1.57799 14.5699C1.64616 14.5765 1.71496 14.5696 1.78045 14.5495C1.84594 14.5295 1.90683 14.4967 1.95964 14.4531L12.1688 6.04423C12.2629 5.96842 12.3801 5.92707 12.5009 5.92707C12.6217 5.92707 12.7388 5.96842 12.8329 6.04423L23.0425 14.4531C23.0953 14.4967 23.156 14.5295 23.2214 14.5496C23.2868 14.5698 23.3556 14.5768 23.4237 14.5703C23.4918 14.5639 23.558 14.5441 23.6184 14.512C23.6789 14.48 23.7325 14.4364 23.776 14.3836L24.8828 13.0382C24.9264 12.9851 24.9591 12.924 24.9789 12.8583C24.9988 12.7927 25.0055 12.7237 24.9987 12.6554C24.9918 12.5871 24.9715 12.5209 24.939 12.4605C24.9064 12.4 24.8623 12.3466 24.809 12.3033Z" fill="black"/>
</g>
<defs>
<clipPath id="clip0_2070_44">
<rect width="25" height="25" fill="white"/>
</clipPath>
</defs>
</svg>
