<svg width="26" height="26" viewBox="0 0 26 26" fill="none" xmlns="http://www.w3.org/2000/svg">
<path d="M13 14.625C17.0371 14.625 20.3125 11.3496 20.3125 7.3125C20.3125 3.27539 17.0371 0 13 0C8.96289 0 5.6875 3.27539 5.6875 7.3125C5.6875 11.3496 8.96289 14.625 13 14.625ZM19.5 16.25H16.702C15.5746 16.768 14.3203 17.0625 13 17.0625C11.6797 17.0625 10.4305 16.768 9.29805 16.25H6.5C2.90977 16.25 0 19.1598 0 22.75V23.5625C0 24.9082 1.0918 26 2.4375 26H23.5625C24.9082 26 26 24.9082 26 23.5625V22.75C26 19.1598 23.0902 16.25 19.5 16.25Z" fill="#7222FF"/>
</svg>
