<svg width="25" height="20" viewBox="0 0 25 20" fill="none" xmlns="http://www.w3.org/2000/svg">
<path d="M24.9774 16.9397C24.6493 16.1428 23.7352 15.7639 22.9384 16.096L22.0751 16.4553L20.5634 12.4749C22.4345 11.1077 23.0946 8.5569 21.911 6.50611L18.5282 0.627208C18.2157 0.0842389 17.5477 -0.142324 16.9657 0.0959576L12.5009 1.94752L8.03601 0.0959576C7.45398 -0.14623 6.78601 0.0842389 6.47351 0.627208L3.0907 6.50611C1.91101 8.5569 2.56726 11.1077 4.43836 12.471L2.92664 16.4514L2.06336 16.0921C1.26648 15.76 0.356325 16.1389 0.0242934 16.9358C-0.0421128 17.096 0.0321059 17.2796 0.192262 17.346L6.53211 19.9788C6.69226 20.0452 6.87195 19.971 6.93836 19.8108C7.26648 19.0139 6.89148 18.0999 6.09461 17.7678L5.23132 17.4085L6.77039 13.3616C6.94226 13.3811 7.11414 13.4124 7.28211 13.4124C9.30164 13.4124 11.1649 12.1194 11.7118 10.0803L12.5009 7.13502L13.2899 10.0803C13.8368 12.1194 15.7001 13.4124 17.7196 13.4124C17.8876 13.4124 18.0595 13.3811 18.2313 13.3616L19.7665 17.4085L18.9032 17.7678C18.1063 18.0999 17.7274 19.0139 18.0594 19.8108C18.1259 19.971 18.3095 20.0452 18.4657 19.9788L24.8094 17.346C24.9657 17.2796 25.0438 17.0999 24.9774 16.9397ZM10.7782 6.33424L6.39929 4.51783L7.82507 2.04127L11.5165 3.57252L10.7782 6.33424ZM14.2235 6.33424L13.4852 3.57252L17.1766 2.04127L18.6024 4.51783L14.2235 6.33424Z" fill="#7222FF"/>
</svg>
