<svg width="34" height="17" viewBox="0 0 34 17" fill="none" xmlns="http://www.w3.org/2000/svg">
<path d="M25.5031 8.67248e-08H8.50061C7.09923 -0.000200091 5.71954 0.346139 4.48438 1.00818C3.24921 1.67023 2.1969 2.62743 1.42113 3.79458C0.645354 4.96173 0.170189 6.3026 0.0379358 7.69783C-0.0943168 9.09305 0.120447 10.4993 0.663107 11.7915C1.20577 13.0836 2.05948 14.2215 3.14825 15.1039C4.23702 15.9862 5.52706 16.5857 6.90352 16.8488C8.27997 17.112 9.70014 17.0307 11.0376 16.6121C12.375 16.1936 13.5882 15.4509 14.5692 14.45H19.4308C20.4117 15.4507 21.6247 16.1934 22.962 16.612C24.2992 17.0305 25.7192 17.112 27.0956 16.849C28.4719 16.586 29.7619 15.9868 30.8507 15.1048C31.9395 14.2227 32.7933 13.0851 33.3362 11.7932C33.8791 10.5013 34.0941 9.09525 33.9623 7.70014C33.8304 6.30504 33.3557 4.96417 32.5804 3.7969C31.8051 2.62963 30.7533 1.67216 29.5185 1.00972C28.2837 0.347278 26.9043 0.000413056 25.5031 8.67248e-08ZM13.1753 9.1375C13.1753 9.30658 13.1081 9.46873 12.9886 9.58828C12.869 9.70784 12.7069 9.775 12.5378 9.775H9.77552V12.5375C9.77552 12.7066 9.70836 12.8687 9.58881 12.9883C9.46926 13.1078 9.30713 13.175 9.13806 13.175H7.86315C7.69409 13.175 7.53195 13.1078 7.41241 12.9883C7.29286 12.8687 7.2257 12.7066 7.2257 12.5375V9.775H4.4634C4.29433 9.775 4.13219 9.70784 4.01265 9.58828C3.8931 9.46873 3.82594 9.30658 3.82594 9.1375V7.8625C3.82594 7.69342 3.8931 7.53127 4.01265 7.41172C4.13219 7.29217 4.29433 7.225 4.4634 7.225H7.2257V4.4625C7.2257 4.29342 7.29286 4.13127 7.41241 4.01172C7.53195 3.89217 7.69409 3.825 7.86315 3.825H9.13806C9.30713 3.825 9.46926 3.89217 9.58881 4.01172C9.70836 4.13127 9.77552 4.29342 9.77552 4.4625V7.225H12.5378C12.7069 7.225 12.869 7.29217 12.9886 7.41172C13.1081 7.53127 13.1753 7.69342 13.1753 7.8625V9.1375ZM24.6495 13.175C24.2292 13.175 23.8184 13.0504 23.469 12.8169C23.1195 12.5834 22.8472 12.2515 22.6863 11.8632C22.5255 11.4749 22.4834 11.0476 22.5654 10.6354C22.6474 10.2232 22.8498 9.84459 23.147 9.5474C23.4441 9.25021 23.8227 9.04782 24.2349 8.96583C24.6471 8.88384 25.0743 8.92592 25.4626 9.08676C25.8509 9.24759 26.1827 9.51996 26.4162 9.86941C26.6497 10.2189 26.7743 10.6297 26.7743 11.05C26.7743 11.6136 26.5504 12.1541 26.1519 12.5526C25.7535 12.9511 25.213 13.175 24.6495 13.175ZM28.0492 8.075C27.629 8.075 27.2181 7.95037 26.8687 7.71687C26.5193 7.48338 26.2469 7.1515 26.0861 6.7632C25.9253 6.37491 25.8832 5.94764 25.9652 5.53543C26.0472 5.12322 26.2495 4.74459 26.5467 4.4474C26.8439 4.15021 27.2225 3.94782 27.6347 3.86583C28.0469 3.78384 28.4741 3.82592 28.8624 3.98676C29.2506 4.14759 29.5825 4.41996 29.816 4.76941C30.0494 5.11887 30.1741 5.52972 30.1741 5.95C30.1741 6.51359 29.9502 7.05409 29.5517 7.4526C29.1532 7.85112 28.6128 8.075 28.0492 8.075Z" fill="black"/>
</svg>
