<svg width="23" height="25" viewBox="0 0 23 25" fill="none" xmlns="http://www.w3.org/2000/svg">
<path d="M22.1521 15.0196L20.139 13.8184C20.3422 12.6856 20.3422 11.5235 20.139 10.3907L22.1521 9.1895C22.3837 9.05278 22.4877 8.76958 22.412 8.50591C21.8875 6.76762 20.9943 5.19536 19.8271 3.88676C19.6475 3.68657 19.3545 3.63774 19.1277 3.77446L17.1145 4.97563C16.2686 4.22368 15.2951 3.64262 14.2413 3.26176V0.864303C14.2413 0.590866 14.057 0.351608 13.797 0.293014C12.0627 -0.107376 10.2858 -0.0878449 8.63655 0.293014C8.37664 0.351608 8.19234 0.590866 8.19234 0.864303V3.26665C7.14322 3.65239 6.16972 4.23344 5.31909 4.98051L3.31066 3.77934C3.0791 3.64262 2.79083 3.68657 2.61125 3.89165C1.444 5.19536 0.550836 6.76762 0.0262807 8.51079C-0.0540567 8.77446 0.054635 9.05766 0.286196 9.19438L2.29935 10.3956C2.09615 11.5284 2.09615 12.6905 2.29935 13.8233L0.286196 15.0245C0.054635 15.1612 -0.0493309 15.4444 0.0262807 15.7081C0.550836 17.4463 1.444 19.0186 2.61125 20.3272C2.79083 20.5274 3.08382 20.5762 3.31066 20.4395L5.32382 19.2383C6.16972 19.9903 7.14322 20.5713 8.19706 20.9522V23.3545C8.19706 23.628 8.38136 23.8672 8.64128 23.9258C10.3756 24.3262 12.1525 24.3067 13.8018 23.9258C14.0617 23.8672 14.246 23.628 14.246 23.3545V20.9522C15.2951 20.5665 16.2686 19.9854 17.1192 19.2383L19.1324 20.4395C19.3639 20.5762 19.6522 20.5323 19.8318 20.3272C20.9991 19.0235 21.8922 17.4512 22.4168 15.7081C22.4877 15.4395 22.3837 15.1563 22.1521 15.0196ZM11.2168 16.0108C9.13275 16.0108 7.43622 14.2579 7.43622 12.1045C7.43622 9.95122 9.13275 8.19829 11.2168 8.19829C13.3008 8.19829 14.9974 9.95122 14.9974 12.1045C14.9974 14.2579 13.3008 16.0108 11.2168 16.0108Z" fill="#7222FF"/>
</svg>
