<svg width="31" height="25" viewBox="0 0 31 25" fill="none" xmlns="http://www.w3.org/2000/svg">
<path d="M25.575 21.875H5.425C4.99875 21.875 4.65 22.2266 4.65 22.6562V24.2188C4.65 24.6484 4.99875 25 5.425 25H25.575C26.0012 25 26.35 24.6484 26.35 24.2188V22.6562C26.35 22.2266 26.0012 21.875 25.575 21.875ZM28.675 6.25C27.3914 6.25 26.35 7.2998 26.35 8.59375C26.35 8.94043 26.4275 9.2627 26.5631 9.56055L23.0562 11.6797C22.3103 12.1289 21.3464 11.875 20.9153 11.1133L16.9677 4.15039C17.4859 3.7207 17.825 3.07617 17.825 2.34375C17.825 1.0498 16.7836 0 15.5 0C14.2164 0 13.175 1.0498 13.175 2.34375C13.175 3.07617 13.5141 3.7207 14.0323 4.15039L10.0847 11.1133C9.65359 11.875 8.68484 12.1289 7.94375 11.6797L4.44172 9.56055C4.5725 9.26758 4.65484 8.94043 4.65484 8.59375C4.65484 7.2998 3.61344 6.25 2.32984 6.25C1.04625 6.25 0 7.2998 0 8.59375C0 9.8877 1.04141 10.9375 2.325 10.9375C2.45094 10.9375 2.57687 10.918 2.69797 10.8984L6.2 20.3125H24.8L28.302 10.8984C28.4231 10.918 28.5491 10.9375 28.675 10.9375C29.9586 10.9375 31 9.8877 31 8.59375C31 7.2998 29.9586 6.25 28.675 6.25Z" fill="#F2D852"/>
</svg>
