<svg width="13" height="19" viewBox="0 0 13 19" fill="none" xmlns="http://www.w3.org/2000/svg">
<path d="M6.5 13.0625C8.45813 13.0625 10.0455 11.4675 10.0455 9.5V3.5625C10.0455 1.59496 8.45813 0 6.5 0C4.54187 0 2.95455 1.59496 2.95455 3.5625V9.5C2.95455 11.4675 4.54187 13.0625 6.5 13.0625ZM12.4091 7.125H11.8182C11.4917 7.125 11.2273 7.3907 11.2273 7.71875V9.5C11.2273 12.2758 8.84554 14.5031 6.02764 14.227C3.57168 13.9862 1.77273 11.7678 1.77273 9.28848V7.71875C1.77273 7.3907 1.5083 7.125 1.18182 7.125H0.590909C0.264432 7.125 0 7.3907 0 7.71875V9.20906C0 12.5355 2.36253 15.501 5.61364 15.9515V17.2188H3.54545C3.21898 17.2188 2.95455 17.4845 2.95455 17.8125V18.4062C2.95455 18.7343 3.21898 19 3.54545 19H9.45455C9.78102 19 10.0455 18.7343 10.0455 18.4062V17.8125C10.0455 17.4845 9.78102 17.2188 9.45455 17.2188H7.38636V15.9656C10.5518 15.5292 13 12.799 13 9.5V7.71875C13 7.3907 12.7356 7.125 12.4091 7.125Z" fill="black"/>
</svg>
